# xmcd
#
# Track frame offsets: 
#        150
#        23181
#        46507
#        68430
#        88427
#        109670
#        128239
#        146557
#        163779
#        185446
#        206597
#        226273
#        244680
#        265642
#        289031
#        308631
#
# Disc length: 4392 seconds
#
# Revision: 0
# Processed by: cddbd v1.5.2PL0 Copyright (c) Steve Scherf et al.
# Submitted via: ExactAudioCopyFreeDBPlugin 1.0
#
DISCID=d6112610
DTITLE=群星 - 试机12号
DYEAR=2009
DGENRE=Acid
TTITLE0=往事如梦
TTITLE1=为爱痴狂
TTITLE2=套马杆
TTITLE3=离别前夕
TTITLE4=梦醉西楼
TTITLE5=寻梦园
TTITLE6=三年[潮红]
TTITLE7=借我一点爱
TTITLE8=在哪东山顶上
TTITLE9=沉浮
TTITLE10=说句心里话
TTITLE11=某夜
TTITLE12=万泉河水清又清
TTITLE13=黄昏
TTITLE14=糊涂的爱
TTITLE15=你照亮我的心
EXTD=
EXTT0=
EXTT1=
EXTT2=
EXTT3=
EXTT4=
EXTT5=
EXTT6=
EXTT7=
EXTT8=
EXTT9=
EXTT10=
EXTT11=
EXTT12=
EXTT13=
EXTT14=
EXTT15=
PLAYORDER=
